<svg width="27" height="26" viewBox="0 0 27 26" fill="none" xmlns="http://www.w3.org/2000/svg">
<path d="M9.51578 7.50329e-05C4.26111 7.50329e-05 0 4.26118 0 9.51585V18.874C0 19.3261 7.9247e-08 19.6939 0.0256621 19.9566C0.0378824 20.0874 0.0598799 20.2255 0.106314 20.344C0.152751 20.4626 0.255398 20.6336 0.466792 20.696C0.683088 20.7595 0.863935 20.6666 0.965387 20.5933C1.06926 20.5176 1.16335 20.4125 1.24645 20.3061C1.41264 20.0947 1.61916 19.7782 1.87212 19.3872L1.88434 19.3676C2.28639 18.7481 2.76052 18.1114 3.27132 17.6177C3.41307 17.4784 3.57193 17.3379 3.74667 17.1961C3.77477 17.1729 3.79677 17.1546 3.81754 17.1387C3.84321 17.1558 3.87253 17.1778 3.90919 17.2047C5.4819 18.3534 7.42013 19.0316 9.5158 19.0316C14.7705 19.0316 19.0316 14.7704 19.0316 9.51578C19.0316 4.26111 14.7704 7.50329e-05 9.51578 7.50329e-05Z" fill="url(#paint0_linear_2080_5289)"/>
<path d="M9.46302 20.0739H9.51556C15.3471 20.0739 20.0737 15.3473 20.0737 9.51573C20.0737 8.05787 19.778 6.66845 19.244 5.40479C23.5845 6.28829 26.8521 10.1279 26.8521 14.73V24.0882C26.8521 24.5391 26.8521 24.9081 26.8264 25.1696C26.8142 25.3016 26.7922 25.4385 26.7458 25.557C26.6993 25.6768 26.5967 25.8466 26.3853 25.9102C26.169 25.9737 25.9882 25.8808 25.8867 25.8063C25.7828 25.7318 25.6887 25.6254 25.6056 25.5203C25.4395 25.3089 25.2329 24.9912 24.98 24.6014L24.9678 24.5818C24.5657 23.9623 24.0916 23.3256 23.582 22.8307C23.439 22.6926 23.2802 22.5521 23.1054 22.4103C23.0773 22.3871 23.0553 22.3675 23.0346 22.3517C23.0089 22.37 22.9796 22.392 22.9429 22.4189C21.3702 23.5676 19.432 24.2445 17.3363 24.2445C14.0625 24.2445 11.1752 22.5912 9.46302 20.0739Z" fill="url(#paint1_linear_2080_5289)"/>
<defs>
<linearGradient id="paint0_linear_2080_5289" x1="9.51579" y1="20.7171" x2="9.51579" y2="-2.50865e-07" gradientUnits="userSpaceOnUse">
<stop stop-color="#FD5E51"/>
<stop offset="1" stop-color="#FF7A6E"/>
</linearGradient>
<linearGradient id="paint1_linear_2080_5289" x1="18.1575" y1="25.9313" x2="18.1575" y2="5.40478" gradientUnits="userSpaceOnUse">
<stop stop-color="#FD5E51"/>
<stop offset="1" stop-color="#FF7A6E"/>
</linearGradient>
</defs>
</svg>
