<svg width="25" height="24" viewBox="0 0 25 24" fill="none" xmlns="http://www.w3.org/2000/svg">
<path d="M12.7885 9.07543C12.6544 9.07543 12.5589 9.07345 12.5174 9.07253C12.3632 9.06878 12.2121 9.02901 12.076 8.9564C11.9399 8.8838 11.8228 8.78037 11.7338 8.65439C11.6448 8.5284 11.5866 8.38336 11.5637 8.23084C11.5408 8.07832 11.5539 7.92257 11.6019 7.77602C11.9454 6.73417 12.2541 5.67111 12.5203 4.61384C13.1068 2.44523 14.3898 1.17188 15.9613 1.17188C16.9184 1.20761 17.8224 1.62094 18.4756 2.32147C19.1287 3.022 19.4779 3.95269 19.4466 4.90997C19.4466 7.21746 17.1324 8.22842 16.3713 8.56027C15.2151 8.93495 14.0034 9.10918 12.7885 9.07543ZM15.9613 3.14752C14.9908 3.14752 14.4902 4.89453 14.4361 5.09326C14.2712 5.74923 14.0908 6.40617 13.8969 7.05828C14.4652 7.03786 15.0275 6.93585 15.5667 6.75537C16.516 6.34154 17.471 5.80421 17.471 4.90997C17.5013 4.47678 17.3599 4.04906 17.0774 3.71926C16.7949 3.38947 16.394 3.18409 15.9613 3.14752Z" fill="url(#paint0_linear_253_4368)"/>
<path d="M12.2146 9.07639C11.0325 9.09854 9.85503 8.92246 8.73113 8.55547C6.04936 7.5107 5.62876 5.82449 5.61719 4.9119C5.6191 4.39993 5.72393 3.89357 5.92545 3.42293C6.12697 2.95228 6.42105 2.52696 6.79022 2.17224C7.40726 1.54893 8.243 1.19076 9.1199 1.17383C10.9643 1.22784 11.8354 3.10897 12.4712 4.48264L11.5759 4.89937L12.4721 4.48457C12.8866 5.58395 13.224 6.71082 13.4821 7.85703C13.5158 7.99929 13.5174 8.14724 13.4869 8.2902C13.4563 8.43316 13.3944 8.56756 13.3056 8.68368C13.2169 8.7998 13.1034 8.89474 12.9734 8.96166C12.8434 9.02857 12.7002 9.06577 12.5541 9.07058C12.5078 9.07251 12.3882 9.07639 12.2146 9.07639ZM9.04272 3.14848C8.70989 3.17946 8.40062 3.33358 8.17548 3.58066C7.99717 3.74931 7.85391 3.9515 7.75392 4.17565C7.65394 4.39979 7.59919 4.64147 7.59283 4.88682C7.60441 5.80422 8.60959 6.38784 9.44981 6.71583C10.0283 6.91084 10.6306 7.02637 11.2402 7.05924C11.0923 6.46578 10.905 5.8828 10.6798 5.31416L10.6788 5.31223C10.236 4.35625 9.68519 3.16681 9.06201 3.14947L9.04272 3.14848Z" fill="url(#paint1_linear_253_4368)"/>
<path d="M19.9402 7.09961H5.12287C4.46791 7.09961 3.83977 7.35979 3.37664 7.82292C2.9135 8.28605 2.65332 8.91419 2.65332 9.56916V20.4352C2.65332 21.0902 2.9135 21.7183 3.37664 22.1814C3.83977 22.6446 4.46791 22.9047 5.12287 22.9047H19.9402C20.2645 22.9048 20.5856 22.8409 20.8853 22.7168C21.1849 22.5927 21.4571 22.4108 21.6864 22.1815C21.9158 21.9521 22.0977 21.6799 22.2218 21.3803C22.3459 21.0806 22.4097 20.7595 22.4097 20.4352V9.56916C22.4097 9.24485 22.3459 8.92371 22.2218 8.62409C22.0977 8.32446 21.9158 8.05221 21.6864 7.82289C21.4571 7.59357 21.1849 7.41167 20.8853 7.28756C20.5856 7.16346 20.2645 7.0996 19.9402 7.09961ZM16.3301 15.7233L15.7875 16.266L13.0995 18.9541C13.025 19.0286 12.9364 19.0878 12.839 19.1282C12.7416 19.1685 12.6372 19.1893 12.5317 19.1893C12.4262 19.1893 12.3218 19.1685 12.2244 19.1282C12.127 19.0878 12.0384 19.0286 11.9639 18.9541L9.27553 16.266L8.7329 15.7233C8.49187 15.482 8.30738 15.1903 8.19274 14.8691C8.0781 14.5479 8.03616 14.2053 8.06996 13.8659C8.10376 13.5266 8.21245 13.199 8.38818 12.9067C8.56392 12.6144 8.80233 12.3648 9.08622 12.1758C9.54495 11.8839 10.0905 11.7595 10.6304 11.8236C11.1703 11.8877 11.6715 12.1364 12.0492 12.5276L12.5315 13.01L13.0139 12.5276C13.3915 12.1363 13.8927 11.8876 14.4327 11.8236C14.9726 11.7595 15.5181 11.884 15.9768 12.1759C16.2607 12.3649 16.4991 12.6145 16.6749 12.9068C16.8506 13.199 16.9593 13.5266 16.9931 13.866C17.0269 14.2053 16.985 14.548 16.8703 14.8691C16.7557 15.1903 16.5712 15.482 16.3301 15.7233Z" fill="url(#paint2_linear_253_4368)"/>
<defs>
<linearGradient id="paint0_linear_253_4368" x1="15.5006" y1="9.07954" x2="15.5007" y2="1.17187" gradientUnits="userSpaceOnUse">
<stop stop-color="#FD5E51"/>
<stop offset="1" stop-color="#FF7A6E"/>
</linearGradient>
<linearGradient id="paint1_linear_253_4368" x1="9.5629" y1="9.07825" x2="9.5629" y2="1.17383" gradientUnits="userSpaceOnUse">
<stop stop-color="#FD5E51"/>
<stop offset="1" stop-color="#FF7A6E"/>
</linearGradient>
<linearGradient id="paint2_linear_253_4368" x1="12.5315" y1="22.9047" x2="12.5315" y2="7.09961" gradientUnits="userSpaceOnUse">
<stop stop-color="#FD5E51"/>
<stop offset="1" stop-color="#FF7A6E"/>
</linearGradient>
</defs>
</svg>
