<svg width="26" height="20" viewBox="0 0 26 20" fill="none" xmlns="http://www.w3.org/2000/svg">
<path d="M10.866 14.5825C8.83503 12.5517 8.72004 9.33861 10.6044 7.26821C12.3276 5.30906 15.5088 4.97933 17.5783 6.56159C18.23 6.0818 18.97 5.76902 19.7583 5.63219C19.5751 0.662017 13.5519 -1.8189 9.88346 1.54169C7.57848 -0.647723 3.60527 -0.463738 1.51187 1.94301C-0.618034 4.28364 -0.482058 7.92164 1.82206 10.2255L8.88304 17.2865C9.15873 17.5621 9.52124 17.7001 9.88317 17.7001C10.2451 17.7001 10.6079 17.5624 10.8836 17.2865L12.2267 15.9434L10.866 14.5825Z" fill="url(#paint0_linear_253_4375)"/>
<path d="M24.1271 7.65484C22.4926 5.77533 19.4013 5.61779 17.5785 7.3001C15.7556 5.61693 12.6646 5.7759 11.0298 7.65513C9.35233 9.49814 9.45927 12.3625 11.2727 14.1759L16.7563 19.6595C17.2096 20.1132 17.9473 20.1129 18.4006 19.6595L23.8842 14.1759C25.6976 12.3623 25.8043 9.49785 24.1271 7.65484Z" fill="url(#paint1_linear_253_4375)"/>
<defs>
<linearGradient id="paint0_linear_253_4375" x1="9.87913" y1="17.7001" x2="9.87913" y2="-2.14332e-07" gradientUnits="userSpaceOnUse">
<stop stop-color="#FD5E51"/>
<stop offset="1" stop-color="#FF7A6E"/>
</linearGradient>
<linearGradient id="paint1_linear_253_4375" x1="17.5784" y1="19.9997" x2="17.5784" y2="6.13477" gradientUnits="userSpaceOnUse">
<stop stop-color="#FD5E51"/>
<stop offset="1" stop-color="#FF7A6E"/>
</linearGradient>
</defs>
</svg>
