<svg width="33" height="26" viewBox="0 0 33 26" fill="none" xmlns="http://www.w3.org/2000/svg">
<path d="M14.1261 18.9576C11.4858 16.3176 11.3363 12.1404 13.786 9.44885C16.0262 6.90191 20.1618 6.47325 22.8522 8.53023C23.6995 7.90649 24.6615 7.49987 25.6862 7.32198C25.4481 0.860639 17.6178 -2.36461 12.8487 2.00424C9.8522 -0.842056 4.68694 -0.602871 1.96547 2.52596C-0.803459 5.56883 -0.626688 10.2983 2.36872 13.2934L11.5482 22.4728C11.9066 22.8312 12.3778 23.0106 12.8484 23.0106C13.3189 23.0106 13.7905 22.8316 14.1489 22.4728L15.895 20.7268L14.1261 18.9576Z" fill="url(#paint0_linear_2080_5280)"/>
<path d="M31.3642 9.95172C29.2392 7.5083 25.2205 7.3035 22.8507 9.49054C20.4809 7.30238 16.4626 7.50905 14.3372 9.9521C12.1566 12.3481 12.2956 16.0719 14.653 18.4293L21.7819 25.5581C22.3712 26.1479 23.3302 26.1475 23.9196 25.5581L31.0484 18.4293C33.4058 16.0715 33.5445 12.3477 31.3642 9.95172Z" fill="url(#paint1_linear_2080_5280)"/>
<defs>
<linearGradient id="paint0_linear_2080_5280" x1="12.8431" y1="23.0106" x2="12.8431" y2="-2.78637e-07" gradientUnits="userSpaceOnUse">
<stop stop-color="#FD5E51"/>
<stop offset="1" stop-color="#FF7A6E"/>
</linearGradient>
<linearGradient id="paint1_linear_2080_5280" x1="22.8506" y1="26.0003" x2="22.8506" y2="7.97559" gradientUnits="userSpaceOnUse">
<stop stop-color="#FD5E51"/>
<stop offset="1" stop-color="#FF7A6E"/>
</linearGradient>
</defs>
</svg>
