<svg width="22" height="22" viewBox="0 0 22 22" fill="none" xmlns="http://www.w3.org/2000/svg">
<path d="M22 18.9444C22 20.6323 20.6323 22 18.9444 22H3.05556C1.36828 22 0 20.6323 0 18.9444V3.05556C0 1.36767 1.36828 0 3.05556 0H18.9444C20.6323 0 22 1.36767 22 3.05556V18.9444Z" fill="#0288D1"/>
<path d="M3.66797 7.94379H6.72352V18.3327H3.66797V7.94379ZM5.18658 6.72157H5.16947C4.25769 6.72157 3.66797 6.04202 3.66797 5.19318C3.66797 4.32602 4.27602 3.66602 5.2043 3.66602C6.1338 3.66602 6.70641 4.32602 6.72352 5.19318C6.72352 6.0414 6.1338 6.72157 5.18658 6.72157ZM18.3346 18.3327H15.2791V12.7722C15.2791 11.429 14.5305 10.5123 13.3284 10.5123C12.4111 10.5123 11.9149 11.1307 11.6741 11.7284C11.5861 11.9423 11.6124 12.5338 11.6124 12.8327V18.3327H8.55686V7.94379H11.6124V9.54246C12.053 8.86046 12.743 7.94379 14.5079 7.94379C16.6944 7.94379 18.334 9.31879 18.334 12.389L18.3346 18.3327Z" fill="white"/>
</svg>
