<svg width="30" height="23" viewBox="0 0 30 23" fill="none" xmlns="http://www.w3.org/2000/svg">
<path d="M27.1885 7.03516L27.417 7.04688C27.9458 7.10017 28.4432 7.3347 28.8223 7.71387C29.2552 8.14704 29.4988 8.73417 29.5 9.34668V18.6602C29.4986 19.2726 29.2543 19.8599 28.8213 20.293C28.3881 20.7261 27.8009 20.9696 27.1885 20.9707H25.6602L25.5273 20.9795C25.3952 20.9968 25.2675 21.0404 25.1514 21.1074C25.0352 21.1745 24.9336 21.2634 24.8525 21.3691L24.7783 21.4795L24.4775 22L24.1777 21.4795C24.0885 21.325 23.9601 21.1967 23.8057 21.1074C23.6511 21.0182 23.4753 20.9708 23.2969 20.9707H13.5635L13.377 20.9639C12.9442 20.929 12.5284 20.7723 12.1787 20.5107C11.9709 20.3553 11.7929 20.1664 11.6494 19.9541H20.1357C21.4804 19.9526 22.7698 19.4176 23.7207 18.4668C24.612 17.5755 25.1373 16.3868 25.2012 15.1338L25.208 14.8818V7.03516H27.1885ZM20.1348 0.5L20.4346 0.515625C21.1297 0.585592 21.783 0.893101 22.2812 1.3916C22.7795 1.89015 23.0875 2.54392 23.1572 3.23926L23.1719 3.54004V14.8809L23.1572 15.1807C23.0876 15.8761 22.7796 16.5297 22.2812 17.0283C21.7119 17.598 20.9401 17.9187 20.1348 17.9199H8.27832C8.10004 17.9201 7.9249 17.9675 7.77051 18.0566C7.65447 18.1237 7.55274 18.2127 7.47168 18.3184L7.39844 18.4287H7.39746L6.83887 19.3955L6.28223 18.4287L6.20801 18.3174C6.12696 18.212 6.02506 18.1235 5.90918 18.0566C5.79331 17.9898 5.66595 17.9462 5.53418 17.9287L5.40137 17.9199H3.53906C2.73347 17.9191 1.96029 17.5991 1.39062 17.0293C0.820984 16.4595 0.500885 15.6867 0.5 14.8809V3.54004C0.500857 2.73429 0.821147 1.96142 1.39062 1.3916C1.88904 0.893031 2.54301 0.58543 3.23828 0.515625L3.53906 0.5H20.1348ZM4.70312 11.2695C4.43338 11.2695 4.17414 11.3767 3.9834 11.5674C3.79265 11.7582 3.68555 12.0173 3.68555 12.2871C3.6856 12.5567 3.7928 12.8151 3.9834 13.0059C4.17415 13.1967 4.43332 13.3047 4.70312 13.3047H17.6348C17.7682 13.3046 17.9002 13.2776 18.0234 13.2266C18.1468 13.1754 18.2591 13.1003 18.3535 13.0059C18.4479 12.9114 18.5231 12.7992 18.5742 12.6758C18.6253 12.5523 18.6515 12.4198 18.6514 12.2861L18.6465 12.1855C18.6232 11.9527 18.5201 11.734 18.3535 11.5674C18.1629 11.3768 17.9043 11.2696 17.6348 11.2695H4.70312ZM4.68945 4.67285C4.42441 4.67977 4.17238 4.78966 3.9873 4.97949C3.80213 5.16954 3.69824 5.4251 3.69824 5.69043L3.70312 5.78906C3.7255 6.01817 3.82529 6.23411 3.9873 6.40039C4.17239 6.59031 4.42434 6.70011 4.68945 6.70703V6.70801H17.6348C17.7682 6.70797 17.9002 6.68093 18.0234 6.62988C18.1468 6.57874 18.2591 6.50365 18.3535 6.40918C18.4479 6.31466 18.5231 6.20256 18.5742 6.0791C18.6253 5.95561 18.6515 5.82309 18.6514 5.68945L18.6465 5.58984C18.6235 5.35682 18.5205 5.13775 18.3535 4.9707C18.1628 4.78003 17.9044 4.67294 17.6348 4.67285H4.68945Z" fill="url(#paint0_linear_2080_5299)" stroke="url(#paint1_linear_2080_5299)"/>
<defs>
<linearGradient id="paint0_linear_2080_5299" x1="15" y1="23" x2="15" y2="-2.78509e-07" gradientUnits="userSpaceOnUse">
<stop stop-color="#FD5E51"/>
<stop offset="1" stop-color="#FF7A6E"/>
</linearGradient>
<linearGradient id="paint1_linear_2080_5299" x1="15" y1="23" x2="15" y2="-2.78509e-07" gradientUnits="userSpaceOnUse">
<stop stop-color="#FD5E51"/>
<stop offset="1" stop-color="#FF7A6E"/>
</linearGradient>
</defs>
</svg>
