<svg width="36" height="24" viewBox="0 0 36 24" fill="none" xmlns="http://www.w3.org/2000/svg">
<path d="M8.92676 0.5C10.7012 0.5 12.1273 1.85467 12.208 3.52734L12.2305 4.00293L12.707 4.00391L15.2871 4.00586H15.2881C15.5317 4.00588 15.7572 4.05076 15.9668 4.1416L15.9707 4.14453L15.9961 4.15625C16.1312 4.21623 16.2584 4.29372 16.374 4.3877L16.4854 4.48633C16.7994 4.79168 16.9746 5.20425 16.9746 5.62793V8.98633L17.4521 9.00781C19.2051 9.08768 20.5781 10.49 20.5781 12.1826V12.1846C20.5779 13.8775 19.2064 15.2805 17.4521 15.3604L16.9746 15.3818V18.3682C16.9746 19.0422 16.5483 19.6282 15.9238 19.875L15.915 19.8789C15.7248 19.9537 15.5127 19.9941 15.2881 19.9941H2.18848C1.24371 19.9941 0.500261 19.253 0.5 18.3672V15.8594C0.500172 15.0898 1.08583 14.4298 1.87988 14.3184L2.04102 14.3027H2.04199C3.17825 14.2498 4.10527 13.3348 4.10547 12.1846C4.10547 11.0364 3.17875 10.1181 2.04102 10.0674H2.04199C1.16628 10.0271 0.500033 9.3296 0.5 8.50879V5.63281C0.500087 5.20445 0.674313 4.79253 0.989258 4.48633C1.26527 4.21811 1.62908 4.05127 2.01953 4.01367L2.18848 4.00586L5.14648 4.00391L5.62305 4.00293L5.64551 3.52734C5.72195 1.90557 7.06234 0.584925 8.75781 0.503906L8.92285 0.5H8.92676ZM23.3525 12.1494C23.3372 9.74707 21.8557 7.69559 19.75 6.78613L19.7471 5.625C19.7469 5.0636 19.6328 4.51477 19.4219 4.00586L30.208 4.00391C31.1546 4.00405 31.8965 4.74571 31.8965 5.62988V8.61816L32.374 8.63965C34.128 8.71785 35.5 10.1212 35.5 11.8145V11.8174C35.5 13.5081 34.1263 14.9105 32.373 14.9902L31.8965 15.0117V18.3721C31.8965 18.7424 31.7627 19.1034 31.5186 19.3926L31.4072 19.5117C31.1305 19.7808 30.766 19.9486 30.376 19.9863L30.208 19.9941H30.207L27.627 19.9961L27.1504 19.9971L27.1279 20.4727C27.0485 22.1176 25.6668 23.4553 23.9307 23.498H23.8486C22.0731 23.498 20.6463 22.146 20.5674 20.4727L20.5449 19.9971L20.0684 19.9961L19.4229 19.9951C19.6305 19.4926 19.7469 18.9443 19.7471 18.3701L19.749 17.584C21.8696 16.6683 23.3524 14.6021 23.3525 12.1846V12.1494Z" fill="url(#paint0_linear_2080_5306)" stroke="url(#paint1_linear_2080_5306)"/>
<defs>
<linearGradient id="paint0_linear_2080_5306" x1="18" y1="24" x2="18" y2="-2.90618e-07" gradientUnits="userSpaceOnUse">
<stop stop-color="#FD5E51"/>
<stop offset="1" stop-color="#FF7A6E"/>
</linearGradient>
<linearGradient id="paint1_linear_2080_5306" x1="18" y1="24" x2="18" y2="-2.90618e-07" gradientUnits="userSpaceOnUse">
<stop stop-color="#FD5E51"/>
<stop offset="1" stop-color="#FF7A6E"/>
</linearGradient>
</defs>
</svg>
