<svg width="28" height="29" viewBox="0 0 28 29" fill="none" xmlns="http://www.w3.org/2000/svg">
<path d="M27.9268 11.1236C27.7424 10.5364 27.2395 10.1207 26.6469 10.0652L18.5642 9.30514L15.3698 1.5594C15.134 0.990332 14.5973 0.623047 14 0.623047C13.4027 0.623047 12.8659 0.990332 12.6315 1.5594L9.43719 9.30514L1.35313 10.0652C0.760528 10.1218 0.258719 10.5375 0.0732909 11.1236C-0.111069 11.7109 0.0591915 12.3549 0.50738 12.762L6.61732 18.3109L4.8158 26.5288C4.68399 27.1331 4.91044 27.7579 5.39452 28.1203C5.65471 28.3161 5.96041 28.4139 6.26718 28.4139C6.5308 28.4139 6.79463 28.3414 7.03026 28.1953L14 23.8791L20.9685 28.1953C21.4797 28.5117 22.1226 28.4827 22.6056 28.1203C23.0896 27.7579 23.3161 27.1331 23.1843 26.5288L21.3828 18.3109L27.4927 12.762C27.9407 12.3549 28.1111 11.7122 27.9268 11.1236Z" fill="url(#paint0_linear_2080_5315)"/>
<defs>
<linearGradient id="paint0_linear_2080_5315" x1="14" y1="28.4139" x2="14" y2="0.623047" gradientUnits="userSpaceOnUse">
<stop stop-color="#FD5E51"/>
<stop offset="1" stop-color="#FF7A6E"/>
</linearGradient>
</defs>
</svg>
